# xmcd
#
# Track frame offsets:
#	150
#	10850
#	22106
#	32147
#	42765
#	56494
#	67088
#	78235
#	89229
#	100473
#	113737
#	125870
#	135264
#	146629
#	170125
#	182114
#	197525
#	207607
#	221914
#	231114
#
# Disc length: 3255 seconds
#
# Revision: 1
# Processed by: cddbd v1.5.2PL0 Copyright (c) Steve Scherf et al.
# Submitted via: audiograbber 1.83.01
#
DISCID=320cb514
DTITLE=Zillertaler Geigenfest - Folge 2
DYEAR=2009
DGENRE=Volkstümlich
TTITLE0=Da Zillertaler und die Geigerin - Mir kearn zam wia da Himmel und die S
TTITLE0=tern
TTITLE1=Die Hegl - So a kloanes Stückerl Hoamat
TTITLE2=Zillertal Power - Mit der Geigen do geht's heit auf
TTITLE3=Zillertaler Local Sound - Weil wir Tiroler sind
TTITLE4=Da Zillertaler und die Geigerin - Madonna, Madonna
TTITLE5=Trio Zillertal - Kreppahütten Boarischer
TTITLE6=4 Bergzigeuner aus Tirol - Die Berg und i
TTITLE7=Bayerwaldflitzer - Heit, do fang ma schneidig o
TTITLE8=Willi Kröll und die Zillertaler Gipfelstürmer - Wir sind aus dem Ziller
TTITLE8=tal
TTITLE9=Fingerl Flitzer - Fesch beinand im Dindlgwand
TTITLE10=Trio Zillertal - Lisa Maria
TTITLE11=Da Zillertaler und die Geigerin - Geigenschneid
TTITLE12=Zillertaler Mander - Dirnd'l des taugt ma
TTITLE13=Crystal-Medley - Crystal
TTITLE14=Orig. Zillertal Sound - I ziach die besten Saiten auf
TTITLE15=Da Zillertaler und die Geigerin - Zillertaler Hochzeitsmarsch
TTITLE16=Kehlbach Express - Mit Volksmusik und E-Guitar
TTITLE17=Orig. Zillertaler Edelweiss Duo - Zillertal Boarischer
TTITLE18=Orig. Zillertaler Heimatklang Duo - Ein einfaches Lied für einfache Le
TTITLE18=ute
TTITLE19=Willi Kröll und die Skilehrer aus dem Zillertal - Wenn ich mal traurig
TTITLE19=bin
EXTD=
EXTT0=
EXTT1=
EXTT2=
EXTT3=
EXTT4=
EXTT5=
EXTT6=
EXTT7=
EXTT8=
EXTT9=
EXTT10=
EXTT11=
EXTT12=
EXTT13=
EXTT14=
EXTT15=
EXTT16=
EXTT17=
EXTT18=
EXTT19=
PLAYORDER=
